<svg width="60" height="57" viewBox="0 0 60 57" fill="none" xmlns="http://www.w3.org/2000/svg">
<path d="M0 0H59.5183V57H0V0Z" fill="#1C1C1C"/>
<path d="M27.0005 27.209V40.5244L24.5835 41.4473L24.437 43H40.6089L41.0483 37.6973L39.2319 37.4775L37.4448 40.7881H31.1606V34.7676H34.3394L34.8228 37.2432L36.8589 36.9062L37.3569 30.6953L35.2476 31.0908L34.603 32.9805H31.1606V26.7109H37.1226L38.0308 29.9043L39.9204 30.1826L40.3745 24.7773H24.4956L24.2759 26.3887L27.0005 27.209ZM42.6304 43H56.7954L57.6597 37.375L55.8726 37.082L53.6167 40.9785L46.8198 40.7588L57.4253 26.4766L57.4839 24.7773H43.1284L42.9819 30.0801L45.106 30.4316L46.1313 26.7549H52.562L42.4839 40.5098L42.6304 43Z" fill="white"/>
</svg>
