<svg width="184" height="59" viewBox="0 0 184 59" fill="none" xmlns="http://www.w3.org/2000/svg">
<path d="M36.6206 42.2637L34.438 41.751V33.5332C34.7993 33.1328 35.2339 32.8252 35.7417 32.6104C36.2495 32.3857 36.7769 32.2734 37.3237 32.2734C38.0952 32.2734 38.7104 32.498 39.1694 32.9473C39.6382 33.3867 39.8726 34.0605 39.8726 34.9688V41.751L37.8511 42.3516L37.7046 43.4209H44.2817L44.4282 42.2637L42.3188 41.751V34.3975C42.3188 33.0791 42.0161 32.0586 41.4106 31.3359C40.8052 30.6133 39.9312 30.252 38.7886 30.252C37.9292 30.252 37.1187 30.4717 36.3569 30.9111C35.5952 31.3506 34.936 31.9023 34.3794 32.5664H34.2329L34.4819 30.6914L34.2329 30.4131L29.8677 30.9844L29.7212 32.0977L31.9771 32.8594V41.751L29.7651 42.3516L29.6187 43.4209H36.4155L36.6206 42.2637ZM65.2144 37.3418L65.3755 35.8477L59.3989 36.126L59.2378 37.5908L65.2144 37.3418ZM74.5015 43.4209C76.9038 43.4209 78.9448 42.9863 80.6245 42.1172C82.3042 41.2383 83.564 40.0762 84.4038 38.6309C85.2534 37.1758 85.6782 35.584 85.6782 33.8555C85.6782 32.2148 85.3511 30.7354 84.6968 29.417C84.0425 28.0986 82.9292 27.0342 81.3569 26.2236C79.7944 25.4033 77.7144 24.9932 75.1167 24.9932C73.144 24.9932 70.6392 25.2324 67.6021 25.7109L67.4702 26.8242L69.9897 27.2637V41.5312L67.4702 42.3369L67.2651 43.4209H74.5015ZM72.7876 26.5605C73.1782 26.5215 73.7739 26.502 74.5747 26.502C76.313 26.502 77.7827 26.8633 78.9839 27.5859C80.1851 28.2988 81.0835 29.2754 81.6792 30.5156C82.2847 31.7461 82.5874 33.1279 82.5874 34.6611C82.5874 36.0088 82.2993 37.2295 81.7231 38.3232C81.1567 39.417 80.2974 40.2861 79.145 40.9307C77.9927 41.5752 76.5815 41.8975 74.9116 41.8975H72.7876V26.5605ZM89.4282 26.9268V41.6484L86.9819 42.3369L86.8647 43.4209H101.733L102.172 38.8359L100.957 38.6455L99.521 42.0146H92.27V34.8809H96.2837L96.7817 37.4443L98.0269 37.2539L98.5249 31.5557L97.1333 31.7607L96.5181 33.5186H92.27V26.5459H99.1694L99.77 29.6953L101.044 29.8857L101.499 25.1982H86.9233L86.7622 26.3115L89.4282 26.9268ZM103.637 26.9268L109.76 43.7725L111.987 43.3623L118.212 26.8682L120.146 26.3115L120.249 25.1982H113.583L113.481 26.3115L116.147 26.9268L111.459 39.7441L106.875 26.8682L109.365 26.3115L109.511 25.1982H101.63L101.484 26.3115L103.637 26.9268Z" fill="#1C1C1C"/>
<path d="M0 0H57.6865V59H0V0Z" fill="#1C1C1C"/>
<path d="M26.2739 27.6299V40.9453L23.8569 41.8682L23.7104 43.4209H39.8823L40.3218 38.1182L38.5054 37.8984L36.7183 41.209H30.4341V35.1885H33.6128L34.0962 37.6641L36.1323 37.3271L36.6304 31.1162L34.521 31.5117L33.8765 33.4014H30.4341V27.1318H36.396L37.3042 30.3252L39.1938 30.6035L39.6479 25.1982H23.769L23.5493 26.8096L26.2739 27.6299ZM41.9038 43.4209H56.0688L56.9331 37.7959L55.146 37.5029L52.8901 41.3994L46.0933 41.1797L56.6987 26.8975L56.7573 25.1982H42.4019L42.2554 30.501L44.3794 30.8525L45.4048 27.1758H51.8354L41.7573 40.9307L41.9038 43.4209Z" fill="white"/>
</svg>
